<svg id="Layer_1" data-name="Layer 1" xmlns="http://www.w3.org/2000/svg" width="206.57" height="37.38" viewBox="0 0 206.57 37.38"><defs><style>.cls-1{fill:#fff;}</style></defs><title>Artboard 4</title><path class="cls-1" d="M17,36.86V20.5c0-3.62-1.29-5.43-4.55-5.43C9,15.07,6.68,17.6,6.68,22V36.86H0V10.15H6.37V14.5c1.45-2.85,3.83-4.87,8.18-4.87,6.11,0,9.16,3.11,9.16,9.58V36.86Z"/><path class="cls-1" d="M30.65,36.86V0h6.68V36.86Z"/><path class="cls-1" d="M43.23,23.51c0-8.75,4.56-13.88,11.75-13.88,4,0,6.73,1.66,8.23,4.56V0h6.68V36.86H63.53V32.31c-1.45,3.1-4.09,5.07-8.55,5.07C47.79,37.38,43.23,32.26,43.23,23.51Zm20,0c0-6.11-2.69-8.81-6.67-8.81s-6.63,2.7-6.63,8.81,2.69,8.8,6.63,8.8S63.21,29.61,63.21,23.51Z"/><path class="cls-1" d="M75.8,29.3c0-4.09,2.43-7.35,9.16-7.87L90.4,21c2.69-.26,3.46-1,3.46-2.38,0-2.64-1.6-4.2-4.91-4.2-3.11,0-4.82,1.35-5.08,4.2H77.24c0-5.44,3.42-9,11.65-9s11.65,3.52,11.65,9V30c0,3.62.31,5.95.83,6.83H95.31a6,6,0,0,1-1.13-4.14c-1.51,3.06-4.2,4.66-8.75,4.66C79.16,37.38,75.8,34.22,75.8,29.3Zm18.06-3.52V23.92c-.46.57-1.7.88-3.52,1l-3.15.25c-3.37.31-4.72,1.71-4.72,3.63,0,2.38,1.51,4,4.92,4C91.53,32.82,93.86,29.67,93.86,25.78Z"/><path class="cls-1" d="M124.51,36.86V20.5c0-3.62-1.29-5.43-4.55-5.43-3.52,0-5.8,2.53-5.8,6.88V36.86h-6.68V10.15h6.37V14.5c1.45-2.85,3.83-4.87,8.18-4.87,6.11,0,9.16,3.11,9.16,9.58V36.86Z"/><path class="cls-1" d="M155.16,36.86V20.5c0-3.62-1.29-5.43-4.55-5.43-3.52,0-5.8,2.53-5.8,6.88V36.86h-6.68V10.15h6.37V14.5c1.45-2.85,3.83-4.87,8.18-4.87,6.11,0,9.16,3.11,9.16,9.58V36.86Z"/><path class="cls-1" d="M167.74,23.51c0-8.24,4.66-13.88,13.26-13.88s13.3,5.7,13.3,13.56c0,.57-.05,1.09-.1,1.71H174.42c.21,5.44,2.8,7.92,6.89,7.92,3.31,0,5.49-1.65,6.26-4.4h6.16c-1.13,5.49-5.23,9-12.42,9C172.61,37.38,167.74,31.94,167.74,23.51Zm6.68-3h13.2c-.56-4.24-3-6.36-6.62-6.36S175,16.31,174.42,20.55Z"/><path class="cls-1" d="M198.5,33.65c0-2,1.45-3.62,4-3.62s4,1.6,4,3.62-1.45,3.63-4,3.63S198.5,35.67,198.5,33.65Z"/></svg>