<?xml version="1.0" encoding="utf-8"?>
<!-- Generator: Adobe Illustrator 23.0.2, SVG Export Plug-In . SVG Version: 6.00 Build 0)  -->
<svg version="1.1" id="Layer_1" xmlns="http://www.w3.org/2000/svg" xmlns:xlink="http://www.w3.org/1999/xlink" x="0px" y="0px"
	 viewBox="0 0 240 100" style="enable-background:new 0 0 240 100;" xml:space="preserve">
<style type="text/css">
	.st0{fill:#FFFFFF;}
</style>
<g>
	<path d="M168.9-539.7v-76.8c0-17-6.1-25.5-21.4-25.5c-16.5,0-27.2,11.9-27.2,32.3v70H88.9v-125.4h29.9v20.4
		c6.8-13.4,18-22.8,38.4-22.8c28.7,0,43,14.6,43,45v82.9H168.9z"/>
	<path d="M232.8-539.7v-173.1h31.4v173.1H232.8z"/>
	<path d="M291.9-602.4c0-41.1,21.4-65.1,55.2-65.1c19,0,31.6,7.8,38.6,21.4v-66.6h31.4v173.1h-29.9v-21.4
		c-6.8,14.6-19.2,23.8-40.1,23.8C313.3-537.3,291.9-561.4,291.9-602.4z M385.7-602.4c0-28.7-12.6-41.3-31.4-41.3
		c-18.5,0-31.1,12.6-31.1,41.3s12.6,41.3,31.1,41.3C373.1-561.1,385.7-573.8,385.7-602.4z"/>
	<path d="M444.8-575.2c0-19.2,11.4-34.5,43-36.9l25.5-2.2c12.6-1.2,16.3-4.6,16.3-11.2c0-12.4-7.5-19.7-23.1-19.7
		c-14.6,0-22.6,6.3-23.8,19.7h-31.1c0-25.5,16-42.1,54.7-42.1s54.7,16.5,54.7,42.1v53.7c0,17,1.5,28,3.9,32.1h-28.4
		c-3.6-4.6-5.3-9.7-5.3-19.4c-7,14.3-19.7,21.9-41.1,21.9C460.6-537.3,444.8-552.1,444.8-575.2z M529.6-591.7v-8.8
		c-2.2,2.7-8,4.1-16.5,4.9l-14.8,1.2c-15.8,1.5-22.1,8-22.1,17c0,11.2,7,18.7,23.1,18.7C518.7-558.7,529.6-573.5,529.6-591.7z"/>
	<path d="M673.5-539.7v-76.8c0-17-6.1-25.5-21.4-25.5c-16.5,0-27.2,11.9-27.2,32.3v70h-31.4v-125.4h29.9v20.4
		c6.8-13.4,18-22.8,38.4-22.8c28.7,0,43,14.6,43,45v82.9H673.5z"/>
	<path d="M817.4-539.7v-76.8c0-17-6.1-25.5-21.4-25.5c-16.5,0-27.2,11.9-27.2,32.3v70h-31.4v-125.4h29.9v20.4
		c6.8-13.4,18-22.8,38.4-22.8c28.7,0,43,14.6,43,45v82.9H817.4z"/>
	<path d="M876.5-602.4c0-38.6,21.9-65.1,62.2-65.1c40.6,0,62.5,26.7,62.5,63.7c0,2.7-0.2,5.1-0.5,8h-92.9
		c1,25.5,13.1,37.2,32.3,37.2c15.6,0,25.8-7.8,29.4-20.7h28.9c-5.3,25.8-24.5,42.1-58.3,42.1C899.3-537.3,876.5-562.8,876.5-602.4z
		 M907.8-616.3h62c-2.7-19.9-13.9-29.9-31.1-29.9C921.4-646.2,910.5-636.2,907.8-616.3z"/>
	<path d="M1020.8-554.8c0-9.5,6.8-17,19-17c12.2,0,19,7.5,19,17c0,9.5-6.8,17-19,17C1027.6-537.8,1020.8-545.3,1020.8-554.8z"/>
</g>
<g>
	<path class="st0" d="M34,67.1V50.7c0-3.6-1.3-5.4-4.6-5.4c-3.5,0-5.8,2.5-5.8,6.9v14.9h-6.7V40.3h6.4v4.3c1.4-2.8,3.8-4.9,8.2-4.9
		c6.1,0,9.2,3.1,9.2,9.6v17.7H34z"/>
	<path class="st0" d="M47.6,67.1V30.2h6.7v36.9H47.6z"/>
	<path class="st0" d="M60.2,53.7c0-8.7,4.6-13.9,11.8-13.9c4,0,6.7,1.7,8.2,4.6V30.2h6.7v36.9h-6.4v-4.6c-1.4,3.1-4.1,5.1-8.5,5.1
		C64.7,67.6,60.2,62.5,60.2,53.7z M80.1,53.7c0-6.1-2.7-8.8-6.7-8.8c-3.9,0-6.6,2.7-6.6,8.8s2.7,8.8,6.6,8.8
		C77.4,62.5,80.1,59.8,80.1,53.7z"/>
	<path class="st0" d="M92.7,59.5c0-4.1,2.4-7.4,9.2-7.9l5.4-0.5c2.7-0.3,3.5-1,3.5-2.4c0-2.6-1.6-4.2-4.9-4.2
		c-3.1,0-4.8,1.3-5.1,4.2h-6.6c0-5.4,3.4-9,11.6-9s11.6,3.5,11.6,9v11.4c0,3.6,0.3,6,0.8,6.8h-6.1c-0.8-1-1.1-2.1-1.1-4.1
		c-1.5,3.1-4.2,4.7-8.7,4.7C96.1,67.6,92.7,64.4,92.7,59.5z M110.8,56v-1.9c-0.5,0.6-1.7,0.9-3.5,1l-3.2,0.3
		c-3.4,0.3-4.7,1.7-4.7,3.6c0,2.4,1.5,4,4.9,4C108.5,63,110.8,59.9,110.8,56z"/>
	<path class="st0" d="M141.4,67.1V50.7c0-3.6-1.3-5.4-4.6-5.4c-3.5,0-5.8,2.5-5.8,6.9v14.9h-6.7V40.3h6.4v4.3
		c1.4-2.8,3.8-4.9,8.2-4.9c6.1,0,9.2,3.1,9.2,9.6v17.7H141.4z"/>
	<path class="st0" d="M172.1,67.1V50.7c0-3.6-1.3-5.4-4.6-5.4c-3.5,0-5.8,2.5-5.8,6.9v14.9h-6.7V40.3h6.4v4.3
		c1.4-2.8,3.8-4.9,8.2-4.9c6.1,0,9.2,3.1,9.2,9.6v17.7H172.1z"/>
	<path class="st0" d="M184.7,53.7c0-8.2,4.7-13.9,13.3-13.9c8.6,0,13.3,5.7,13.3,13.6c0,0.6-0.1,1.1-0.1,1.7h-19.8
		c0.2,5.4,2.8,7.9,6.9,7.9c3.3,0,5.5-1.7,6.3-4.4h6.2c-1.1,5.5-5.2,9-12.4,9C189.5,67.6,184.7,62.1,184.7,53.7z M191.3,50.8h13.2
		c-0.6-4.2-3-6.4-6.6-6.4C194.2,44.4,191.9,46.5,191.3,50.8z"/>
	<path class="st0" d="M215.4,63.9c0-2,1.4-3.6,4-3.6c2.6,0,4,1.6,4,3.6c0,2-1.4,3.6-4,3.6C216.9,67.5,215.4,65.9,215.4,63.9z"/>
</g>
</svg>
